<svg xmlns="http://www.w3.org/2000/svg" viewBox="0 0 512 512">
  <defs>
    <linearGradient id="g" x1="0" y1="0" x2="1" y2="1">
      <stop offset="0" stop-color="#6366F1" stop-opacity="0.95"/>
      <stop offset="1" stop-color="#22C55E" stop-opacity="0.85"/>
    </linearGradient>
    <filter id="s" x="-20%" y="-20%" width="140%" height="140%">
      <feDropShadow dx="0" dy="16" stdDeviation="18" flood-color="#000" flood-opacity="0.45"/>
    </filter>
  </defs>
  <rect width="512" height="512" rx="124" fill="#0B0C10"/>
  <g filter="url(#s)">
    <path d="M154 156c0-26 21-46 46-46h112c26 0 46 20 46 46v200c0 26-20 46-46 46H200c-25 0-46-20-46-46V156z" fill="url(#g)" opacity="0.95"/>
    <path d="M214 186h84c12 0 22 10 22 22v96c0 12-10 22-22 22h-84c-12 0-22-10-22-22v-96c0-12 10-22 22-22z" fill="#0B0C10" opacity="0.9"/>
    <path d="M210 350h92" stroke="#E4E4E7" stroke-opacity="0.55" stroke-width="12" stroke-linecap="round"/>
  </g>
  <path d="M86 382c34 42 97 72 170 72s136-30 170-72" stroke="#E4E4E7" stroke-opacity="0.10" stroke-width="16" stroke-linecap="round"/>
</svg>

